<?xml version="1.0" encoding="utf-8"?>
<!-- Generator: Adobe Illustrator 21.1.0, SVG Export Plug-In . SVG Version: 6.00 Build 0)  -->
<svg version="1.1" id="Layer_1" xmlns="http://www.w3.org/2000/svg" xmlns:xlink="http://www.w3.org/1999/xlink" x="0px" y="0px"
	 viewBox="0 0 24 24" style="enable-background:new 0 0 24 24;" xml:space="preserve">
<style type="text/css">
	.st0{fill:#2F2F2F;}
</style>
<polygon class="st0" points="21.3,10.5 21.3,21.3 15.4,21.3 2.7,21.3 2.7,2.7 13.5,2.7 13.5,0 0,0 0,24 24,24 24,10.5 "/>
<path class="st0" d="M23.7,3.6C23.7,3.6,23.7,3.6,23.7,3.6l-3.3-3.3C20.2,0.1,19.9,0,19.7,0c-0.2,0-0.4,0.1-0.5,0.3L5.8,13.6
	c-0.1,0.1-0.2,0.3-0.3,0.5l-0.4,3.8c-0.1,0.5,0.3,0.9,0.8,1c0.1,0,0.1,0,0.2,0l3.8-0.4c0.2,0,0.4-0.1,0.5-0.2L23.7,4.9
	C24.1,4.5,24.1,3.9,23.7,3.6z M17.4,5.3l1.3,1.3l-8.6,8.6l-1.3-1.3L17.4,5.3z M7.4,16.6l0.2-1.4l1.3,1.3L7.4,16.6z"/>
</svg>
