<?xml version="1.0" encoding="utf-8"?>
<!-- Generator: Adobe Illustrator 22.1.0, SVG Export Plug-In . SVG Version: 6.00 Build 0)  -->
<svg version="1.1" id="Layer_1" xmlns="http://www.w3.org/2000/svg" xmlns:xlink="http://www.w3.org/1999/xlink" x="0px" y="0px"
	 viewBox="0 0 128.2 32.2" style="enable-background:new 0 0 128.2 32.2;" xml:space="preserve">
<style type="text/css">
	.st0{fill:#F57E36;}
	.st1{fill:#FFFFFF;}
</style>
<path class="st0" d="M119.1,32.2H9.1c-5,0-9.1-4.1-9.1-9.1V9.1C0,4.1,4.1,0,9.1,0h110.1c5,0,9.1,4.1,9.1,9.1v14.1
	C128.2,28.1,124.1,32.2,119.1,32.2z"/>
<g>
	<g>
		<path class="st1" d="M110.8,6.1c2.5,4.2,6.4,7.5,10.5,10.1c-4.2,2.5-7.9,6-10.5,10.1h-2.5c2.6-4,5.8-7.5,9.7-10.1
			c-3.9-2.7-7.2-6.2-9.7-10.1H110.8z"/>
		<path class="st1" d="M104.7,6.1c2.5,4.2,6.4,7.5,10.5,10.1c-4.2,2.5-7.9,6-10.5,10.1h-2.5c2.6-4,5.8-7.5,9.7-10.1
			c-3.9-2.7-7.2-6.2-9.7-10.1H104.7z"/>
	</g>
</g>
</svg>
